<mxfile host="app.diagrams.net" modified="2023-03-18T16:18:20.276Z" agent="5.0 (Windows)" etag="ihiu2ry0PdkFA-Za3yd-" version="21.0.6" type="github" pages="3">
  <diagram id="R2lEEEUBdFMjLlhIrx00" name="Orders">
    <mxGraphModel dx="1235" dy="624" grid="1" gridSize="10" guides="1" tooltips="1" connect="1" arrows="1" fold="1" page="1" pageScale="1" pageWidth="850" pageHeight="1100" math="0" shadow="0" extFonts="Permanent Marker^https://fonts.googleapis.com/css?family=Permanent+Marker">
      <root>
        <mxCell id="0" />
        <mxCell id="1" parent="0" />
        <mxCell id="PL4opq9XYxUtVZ5fc_lR-81" value="&lt;b&gt;Dish&lt;/b&gt;" style="swimlane;fontStyle=0;childLayout=stackLayout;horizontal=1;startSize=30;horizontalStack=0;resizeParent=1;resizeParentMax=0;resizeLast=0;collapsible=1;marginBottom=0;whiteSpace=wrap;html=1;" vertex="1" parent="1">
          <mxGeometry x="284" y="500" width="140" height="150" as="geometry" />
        </mxCell>
        <mxCell id="PL4opq9XYxUtVZ5fc_lR-82" value="&lt;u&gt;Dish_ID&lt;/u&gt;" style="text;strokeColor=none;fillColor=none;align=left;verticalAlign=middle;spacingLeft=4;spacingRight=4;overflow=hidden;points=[[0,0.5],[1,0.5]];portConstraint=eastwest;rotatable=0;whiteSpace=wrap;html=1;" vertex="1" parent="PL4opq9XYxUtVZ5fc_lR-81">
          <mxGeometry y="30" width="140" height="30" as="geometry" />
        </mxCell>
        <mxCell id="PL4opq9XYxUtVZ5fc_lR-83" value="Dish_Name" style="text;strokeColor=none;fillColor=none;align=left;verticalAlign=middle;spacingLeft=4;spacingRight=4;overflow=hidden;points=[[0,0.5],[1,0.5]];portConstraint=eastwest;rotatable=0;whiteSpace=wrap;html=1;" vertex="1" parent="PL4opq9XYxUtVZ5fc_lR-81">
          <mxGeometry y="60" width="140" height="30" as="geometry" />
        </mxCell>
        <mxCell id="PL4opq9XYxUtVZ5fc_lR-84" value="Price" style="text;strokeColor=none;fillColor=none;align=left;verticalAlign=middle;spacingLeft=4;spacingRight=4;overflow=hidden;points=[[0,0.5],[1,0.5]];portConstraint=eastwest;rotatable=0;whiteSpace=wrap;html=1;" vertex="1" parent="PL4opq9XYxUtVZ5fc_lR-81">
          <mxGeometry y="90" width="140" height="30" as="geometry" />
        </mxCell>
        <mxCell id="PL4opq9XYxUtVZ5fc_lR-85" value="Type" style="text;strokeColor=none;fillColor=none;align=left;verticalAlign=middle;spacingLeft=4;spacingRight=4;overflow=hidden;points=[[0,0.5],[1,0.5]];portConstraint=eastwest;rotatable=0;whiteSpace=wrap;html=1;" vertex="1" parent="PL4opq9XYxUtVZ5fc_lR-81">
          <mxGeometry y="120" width="140" height="30" as="geometry" />
        </mxCell>
        <mxCell id="PL4opq9XYxUtVZ5fc_lR-86" value="&lt;b&gt;Customers&lt;/b&gt;" style="swimlane;fontStyle=0;childLayout=stackLayout;horizontal=1;startSize=30;horizontalStack=0;resizeParent=1;resizeParentMax=0;resizeLast=0;collapsible=1;marginBottom=0;whiteSpace=wrap;html=1;" vertex="1" parent="1">
          <mxGeometry x="284" y="809" width="140" height="90" as="geometry" />
        </mxCell>
        <mxCell id="PL4opq9XYxUtVZ5fc_lR-87" value="&lt;u&gt;Table_ID&lt;/u&gt;" style="text;strokeColor=none;fillColor=none;align=left;verticalAlign=middle;spacingLeft=4;spacingRight=4;overflow=hidden;points=[[0,0.5],[1,0.5]];portConstraint=eastwest;rotatable=0;whiteSpace=wrap;html=1;" vertex="1" parent="PL4opq9XYxUtVZ5fc_lR-86">
          <mxGeometry y="30" width="140" height="30" as="geometry" />
        </mxCell>
        <mxCell id="PL4opq9XYxUtVZ5fc_lR-88" value="&lt;u&gt;Start_Time&lt;/u&gt;" style="text;strokeColor=none;fillColor=none;align=left;verticalAlign=middle;spacingLeft=4;spacingRight=4;overflow=hidden;points=[[0,0.5],[1,0.5]];portConstraint=eastwest;rotatable=0;whiteSpace=wrap;html=1;" vertex="1" parent="PL4opq9XYxUtVZ5fc_lR-86">
          <mxGeometry y="60" width="140" height="30" as="geometry" />
        </mxCell>
        <mxCell id="PL4opq9XYxUtVZ5fc_lR-89" value="&lt;b&gt;Orders&lt;/b&gt;" style="rhombus;whiteSpace=wrap;html=1;" vertex="1" parent="1">
          <mxGeometry x="309" y="690" width="90" height="80" as="geometry" />
        </mxCell>
        <mxCell id="PL4opq9XYxUtVZ5fc_lR-90" value="&lt;b&gt;Serves&lt;/b&gt;" style="rhombus;whiteSpace=wrap;html=1;" vertex="1" parent="1">
          <mxGeometry x="472" y="814" width="80" height="80" as="geometry" />
        </mxCell>
        <mxCell id="PL4opq9XYxUtVZ5fc_lR-91" value="&lt;b&gt;Waiter&lt;/b&gt;" style="swimlane;fontStyle=0;childLayout=stackLayout;horizontal=1;startSize=30;horizontalStack=0;resizeParent=1;resizeParentMax=0;resizeLast=0;collapsible=1;marginBottom=0;whiteSpace=wrap;html=1;" vertex="1" parent="1">
          <mxGeometry x="594" y="790" width="140" height="120" as="geometry" />
        </mxCell>
        <mxCell id="PL4opq9XYxUtVZ5fc_lR-92" value="&lt;u&gt;Waiter_ID&lt;/u&gt;" style="text;strokeColor=none;fillColor=none;align=left;verticalAlign=middle;spacingLeft=4;spacingRight=4;overflow=hidden;points=[[0,0.5],[1,0.5]];portConstraint=eastwest;rotatable=0;whiteSpace=wrap;html=1;" vertex="1" parent="PL4opq9XYxUtVZ5fc_lR-91">
          <mxGeometry y="30" width="140" height="30" as="geometry" />
        </mxCell>
        <mxCell id="PL4opq9XYxUtVZ5fc_lR-93" value="Waiter_Name" style="text;strokeColor=none;fillColor=none;align=left;verticalAlign=middle;spacingLeft=4;spacingRight=4;overflow=hidden;points=[[0,0.5],[1,0.5]];portConstraint=eastwest;rotatable=0;whiteSpace=wrap;html=1;" vertex="1" parent="PL4opq9XYxUtVZ5fc_lR-91">
          <mxGeometry y="60" width="140" height="30" as="geometry" />
        </mxCell>
        <mxCell id="PL4opq9XYxUtVZ5fc_lR-94" value="Salary" style="text;strokeColor=none;fillColor=none;align=left;verticalAlign=middle;spacingLeft=4;spacingRight=4;overflow=hidden;points=[[0,0.5],[1,0.5]];portConstraint=eastwest;rotatable=0;whiteSpace=wrap;html=1;" vertex="1" parent="PL4opq9XYxUtVZ5fc_lR-91">
          <mxGeometry y="90" width="140" height="30" as="geometry" />
        </mxCell>
        <mxCell id="PL4opq9XYxUtVZ5fc_lR-95" value="&lt;b&gt;Recipe&lt;/b&gt;" style="rhombus;whiteSpace=wrap;html=1;" vertex="1" parent="1">
          <mxGeometry x="473" y="535" width="80" height="80" as="geometry" />
        </mxCell>
        <mxCell id="PL4opq9XYxUtVZ5fc_lR-96" value="&lt;b&gt;Ingredient&lt;/b&gt;" style="swimlane;fontStyle=0;childLayout=stackLayout;horizontal=1;startSize=30;horizontalStack=0;resizeParent=1;resizeParentMax=0;resizeLast=0;collapsible=1;marginBottom=0;whiteSpace=wrap;html=1;" vertex="1" parent="1">
          <mxGeometry x="594" y="513" width="140" height="120" as="geometry" />
        </mxCell>
        <mxCell id="PL4opq9XYxUtVZ5fc_lR-97" value="&lt;u&gt;Ingredient_ID&lt;/u&gt;" style="text;strokeColor=none;fillColor=none;align=left;verticalAlign=middle;spacingLeft=4;spacingRight=4;overflow=hidden;points=[[0,0.5],[1,0.5]];portConstraint=eastwest;rotatable=0;whiteSpace=wrap;html=1;" vertex="1" parent="PL4opq9XYxUtVZ5fc_lR-96">
          <mxGeometry y="30" width="140" height="30" as="geometry" />
        </mxCell>
        <mxCell id="PL4opq9XYxUtVZ5fc_lR-98" value="Ingredient_Name" style="text;strokeColor=none;fillColor=none;align=left;verticalAlign=middle;spacingLeft=4;spacingRight=4;overflow=hidden;points=[[0,0.5],[1,0.5]];portConstraint=eastwest;rotatable=0;whiteSpace=wrap;html=1;" vertex="1" parent="PL4opq9XYxUtVZ5fc_lR-96">
          <mxGeometry y="60" width="140" height="30" as="geometry" />
        </mxCell>
        <mxCell id="PL4opq9XYxUtVZ5fc_lR-99" value="Cost" style="text;strokeColor=none;fillColor=none;align=left;verticalAlign=middle;spacingLeft=4;spacingRight=4;overflow=hidden;points=[[0,0.5],[1,0.5]];portConstraint=eastwest;rotatable=0;whiteSpace=wrap;html=1;" vertex="1" parent="PL4opq9XYxUtVZ5fc_lR-96">
          <mxGeometry y="90" width="140" height="30" as="geometry" />
        </mxCell>
        <mxCell id="PL4opq9XYxUtVZ5fc_lR-100" value="" style="endArrow=none;html=1;rounded=0;exitX=0.5;exitY=0;exitDx=0;exitDy=0;" edge="1" parent="1" source="PL4opq9XYxUtVZ5fc_lR-89" target="PL4opq9XYxUtVZ5fc_lR-85">
          <mxGeometry width="50" height="50" relative="1" as="geometry">
            <mxPoint x="654" y="720" as="sourcePoint" />
            <mxPoint x="224" y="680" as="targetPoint" />
          </mxGeometry>
        </mxCell>
        <mxCell id="PL4opq9XYxUtVZ5fc_lR-101" value="" style="endArrow=none;html=1;rounded=0;shape=link;exitX=0;exitY=0.5;exitDx=0;exitDy=0;entryX=1;entryY=0.5;entryDx=0;entryDy=0;" edge="1" parent="1" source="PL4opq9XYxUtVZ5fc_lR-95" target="PL4opq9XYxUtVZ5fc_lR-83">
          <mxGeometry width="50" height="50" relative="1" as="geometry">
            <mxPoint x="474" y="560" as="sourcePoint" />
            <mxPoint x="474" y="670" as="targetPoint" />
          </mxGeometry>
        </mxCell>
        <mxCell id="PL4opq9XYxUtVZ5fc_lR-102" value="" style="endArrow=none;html=1;rounded=0;exitX=1;exitY=0.5;exitDx=0;exitDy=0;entryX=0;entryY=0.067;entryDx=0;entryDy=0;entryPerimeter=0;" edge="1" parent="1" source="PL4opq9XYxUtVZ5fc_lR-95" target="PL4opq9XYxUtVZ5fc_lR-98">
          <mxGeometry width="50" height="50" relative="1" as="geometry">
            <mxPoint x="653" y="725" as="sourcePoint" />
            <mxPoint x="703" y="675" as="targetPoint" />
          </mxGeometry>
        </mxCell>
        <mxCell id="PL4opq9XYxUtVZ5fc_lR-103" value="" style="endArrow=none;html=1;rounded=0;entryX=0;entryY=0.5;entryDx=0;entryDy=0;shape=link;exitX=1;exitY=0.5;exitDx=0;exitDy=0;" edge="1" parent="1" source="PL4opq9XYxUtVZ5fc_lR-86" target="PL4opq9XYxUtVZ5fc_lR-90">
          <mxGeometry width="50" height="50" relative="1" as="geometry">
            <mxPoint x="492" y="929" as="sourcePoint" />
            <mxPoint x="702" y="639" as="targetPoint" />
          </mxGeometry>
        </mxCell>
        <mxCell id="PL4opq9XYxUtVZ5fc_lR-104" value="" style="endArrow=classic;html=1;rounded=0;exitX=1;exitY=0.5;exitDx=0;exitDy=0;entryX=0;entryY=1.1;entryDx=0;entryDy=0;entryPerimeter=0;" edge="1" parent="1" source="PL4opq9XYxUtVZ5fc_lR-90" target="PL4opq9XYxUtVZ5fc_lR-92">
          <mxGeometry width="50" height="50" relative="1" as="geometry">
            <mxPoint x="652" y="689" as="sourcePoint" />
            <mxPoint x="702" y="639" as="targetPoint" />
          </mxGeometry>
        </mxCell>
        <mxCell id="PL4opq9XYxUtVZ5fc_lR-105" value="" style="endArrow=none;html=1;rounded=0;exitX=0.5;exitY=1;exitDx=0;exitDy=0;entryX=0.5;entryY=0;entryDx=0;entryDy=0;shape=link;" edge="1" parent="1" source="PL4opq9XYxUtVZ5fc_lR-89" target="PL4opq9XYxUtVZ5fc_lR-86">
          <mxGeometry width="50" height="50" relative="1" as="geometry">
            <mxPoint x="652" y="730" as="sourcePoint" />
            <mxPoint x="702" y="680" as="targetPoint" />
          </mxGeometry>
        </mxCell>
        <mxCell id="PL4opq9XYxUtVZ5fc_lR-106" value="&lt;b&gt;Drink&lt;/b&gt;" style="swimlane;fontStyle=0;childLayout=stackLayout;horizontal=1;startSize=30;horizontalStack=0;resizeParent=1;resizeParentMax=0;resizeLast=0;collapsible=1;marginBottom=0;whiteSpace=wrap;html=1;" vertex="1" parent="1">
          <mxGeometry x="90" y="656" width="140" height="150" as="geometry" />
        </mxCell>
        <mxCell id="PL4opq9XYxUtVZ5fc_lR-107" value="&lt;u&gt;Drink_ID&lt;/u&gt;" style="text;strokeColor=none;fillColor=none;align=left;verticalAlign=middle;spacingLeft=4;spacingRight=4;overflow=hidden;points=[[0,0.5],[1,0.5]];portConstraint=eastwest;rotatable=0;whiteSpace=wrap;html=1;" vertex="1" parent="PL4opq9XYxUtVZ5fc_lR-106">
          <mxGeometry y="30" width="140" height="30" as="geometry" />
        </mxCell>
        <mxCell id="PL4opq9XYxUtVZ5fc_lR-108" value="Drink_Name" style="text;strokeColor=none;fillColor=none;align=left;verticalAlign=middle;spacingLeft=4;spacingRight=4;overflow=hidden;points=[[0,0.5],[1,0.5]];portConstraint=eastwest;rotatable=0;whiteSpace=wrap;html=1;" vertex="1" parent="PL4opq9XYxUtVZ5fc_lR-106">
          <mxGeometry y="60" width="140" height="30" as="geometry" />
        </mxCell>
        <mxCell id="PL4opq9XYxUtVZ5fc_lR-143" value="Price" style="text;strokeColor=none;fillColor=none;align=left;verticalAlign=middle;spacingLeft=4;spacingRight=4;overflow=hidden;points=[[0,0.5],[1,0.5]];portConstraint=eastwest;rotatable=0;whiteSpace=wrap;html=1;" vertex="1" parent="PL4opq9XYxUtVZ5fc_lR-106">
          <mxGeometry y="90" width="140" height="30" as="geometry" />
        </mxCell>
        <mxCell id="PL4opq9XYxUtVZ5fc_lR-145" value="Type" style="text;strokeColor=none;fillColor=none;align=left;verticalAlign=middle;spacingLeft=4;spacingRight=4;overflow=hidden;points=[[0,0.5],[1,0.5]];portConstraint=eastwest;rotatable=0;whiteSpace=wrap;html=1;" vertex="1" parent="PL4opq9XYxUtVZ5fc_lR-106">
          <mxGeometry y="120" width="140" height="30" as="geometry" />
        </mxCell>
        <mxCell id="PL4opq9XYxUtVZ5fc_lR-111" value="" style="endArrow=none;html=1;rounded=0;exitX=0;exitY=0.5;exitDx=0;exitDy=0;entryX=1;entryY=0.5;entryDx=0;entryDy=0;" edge="1" parent="1" target="PL4opq9XYxUtVZ5fc_lR-108">
          <mxGeometry width="50" height="50" relative="1" as="geometry">
            <mxPoint x="310" y="731" as="sourcePoint" />
            <mxPoint x="430" y="637" as="targetPoint" />
          </mxGeometry>
        </mxCell>
      </root>
    </mxGraphModel>
  </diagram>
  <diagram id="FJVTKk-_OP37dNf6MDA-" name="Entity Relationship">
    <mxGraphModel dx="2327" dy="757" grid="1" gridSize="10" guides="1" tooltips="1" connect="1" arrows="1" fold="1" page="1" pageScale="1" pageWidth="827" pageHeight="1169" math="0" shadow="0">
      <root>
        <mxCell id="0" />
        <mxCell id="1" parent="0" />
        <mxCell id="rRaXRo4WKHm0A6ICayn7-1" value="&lt;b&gt;Dish&lt;/b&gt;" style="swimlane;fontStyle=0;childLayout=stackLayout;horizontal=1;startSize=30;horizontalStack=0;resizeParent=1;resizeParentMax=0;resizeLast=0;collapsible=1;marginBottom=0;whiteSpace=wrap;html=1;" vertex="1" parent="1">
          <mxGeometry x="345" y="80" width="140" height="150" as="geometry" />
        </mxCell>
        <mxCell id="rRaXRo4WKHm0A6ICayn7-2" value="&lt;u&gt;Dish_ID&lt;/u&gt;" style="text;strokeColor=none;fillColor=none;align=left;verticalAlign=middle;spacingLeft=4;spacingRight=4;overflow=hidden;points=[[0,0.5],[1,0.5]];portConstraint=eastwest;rotatable=0;whiteSpace=wrap;html=1;" vertex="1" parent="rRaXRo4WKHm0A6ICayn7-1">
          <mxGeometry y="30" width="140" height="30" as="geometry" />
        </mxCell>
        <mxCell id="rRaXRo4WKHm0A6ICayn7-3" value="Dish_Name" style="text;strokeColor=none;fillColor=none;align=left;verticalAlign=middle;spacingLeft=4;spacingRight=4;overflow=hidden;points=[[0,0.5],[1,0.5]];portConstraint=eastwest;rotatable=0;whiteSpace=wrap;html=1;" vertex="1" parent="rRaXRo4WKHm0A6ICayn7-1">
          <mxGeometry y="60" width="140" height="30" as="geometry" />
        </mxCell>
        <mxCell id="rRaXRo4WKHm0A6ICayn7-4" value="Price" style="text;strokeColor=none;fillColor=none;align=left;verticalAlign=middle;spacingLeft=4;spacingRight=4;overflow=hidden;points=[[0,0.5],[1,0.5]];portConstraint=eastwest;rotatable=0;whiteSpace=wrap;html=1;" vertex="1" parent="rRaXRo4WKHm0A6ICayn7-1">
          <mxGeometry y="90" width="140" height="30" as="geometry" />
        </mxCell>
        <mxCell id="rRaXRo4WKHm0A6ICayn7-5" value="Type" style="text;strokeColor=none;fillColor=none;align=left;verticalAlign=middle;spacingLeft=4;spacingRight=4;overflow=hidden;points=[[0,0.5],[1,0.5]];portConstraint=eastwest;rotatable=0;whiteSpace=wrap;html=1;" vertex="1" parent="rRaXRo4WKHm0A6ICayn7-1">
          <mxGeometry y="120" width="140" height="30" as="geometry" />
        </mxCell>
        <mxCell id="rRaXRo4WKHm0A6ICayn7-6" value="&lt;b&gt;Customers&lt;/b&gt;" style="swimlane;fontStyle=0;childLayout=stackLayout;horizontal=1;startSize=30;horizontalStack=0;resizeParent=1;resizeParentMax=0;resizeLast=0;collapsible=1;marginBottom=0;whiteSpace=wrap;html=1;" vertex="1" parent="1">
          <mxGeometry x="345" y="369" width="140" height="90" as="geometry" />
        </mxCell>
        <mxCell id="rRaXRo4WKHm0A6ICayn7-7" value="&lt;u&gt;Table_ID&lt;/u&gt;" style="text;strokeColor=none;fillColor=none;align=left;verticalAlign=middle;spacingLeft=4;spacingRight=4;overflow=hidden;points=[[0,0.5],[1,0.5]];portConstraint=eastwest;rotatable=0;whiteSpace=wrap;html=1;" vertex="1" parent="rRaXRo4WKHm0A6ICayn7-6">
          <mxGeometry y="30" width="140" height="30" as="geometry" />
        </mxCell>
        <mxCell id="rRaXRo4WKHm0A6ICayn7-8" value="&lt;u&gt;Start_Time&lt;/u&gt;" style="text;strokeColor=none;fillColor=none;align=left;verticalAlign=middle;spacingLeft=4;spacingRight=4;overflow=hidden;points=[[0,0.5],[1,0.5]];portConstraint=eastwest;rotatable=0;whiteSpace=wrap;html=1;" vertex="1" parent="rRaXRo4WKHm0A6ICayn7-6">
          <mxGeometry y="60" width="140" height="30" as="geometry" />
        </mxCell>
        <mxCell id="rRaXRo4WKHm0A6ICayn7-9" value="&lt;b&gt;Orders_Dish&lt;/b&gt;" style="rhombus;whiteSpace=wrap;html=1;" vertex="1" parent="1">
          <mxGeometry x="370" y="260" width="90" height="80" as="geometry" />
        </mxCell>
        <mxCell id="rRaXRo4WKHm0A6ICayn7-10" value="&lt;b&gt;Serves&lt;/b&gt;" style="rhombus;whiteSpace=wrap;html=1;" vertex="1" parent="1">
          <mxGeometry x="533" y="374" width="80" height="80" as="geometry" />
        </mxCell>
        <mxCell id="rRaXRo4WKHm0A6ICayn7-11" value="&lt;b&gt;Waiter&lt;/b&gt;" style="swimlane;fontStyle=0;childLayout=stackLayout;horizontal=1;startSize=30;horizontalStack=0;resizeParent=1;resizeParentMax=0;resizeLast=0;collapsible=1;marginBottom=0;whiteSpace=wrap;html=1;" vertex="1" parent="1">
          <mxGeometry x="655" y="350" width="140" height="120" as="geometry" />
        </mxCell>
        <mxCell id="rRaXRo4WKHm0A6ICayn7-12" value="&lt;u&gt;Waiter_ID&lt;/u&gt;" style="text;strokeColor=none;fillColor=none;align=left;verticalAlign=middle;spacingLeft=4;spacingRight=4;overflow=hidden;points=[[0,0.5],[1,0.5]];portConstraint=eastwest;rotatable=0;whiteSpace=wrap;html=1;" vertex="1" parent="rRaXRo4WKHm0A6ICayn7-11">
          <mxGeometry y="30" width="140" height="30" as="geometry" />
        </mxCell>
        <mxCell id="rRaXRo4WKHm0A6ICayn7-13" value="Waiter_Name" style="text;strokeColor=none;fillColor=none;align=left;verticalAlign=middle;spacingLeft=4;spacingRight=4;overflow=hidden;points=[[0,0.5],[1,0.5]];portConstraint=eastwest;rotatable=0;whiteSpace=wrap;html=1;" vertex="1" parent="rRaXRo4WKHm0A6ICayn7-11">
          <mxGeometry y="60" width="140" height="30" as="geometry" />
        </mxCell>
        <mxCell id="rRaXRo4WKHm0A6ICayn7-14" value="Salary" style="text;strokeColor=none;fillColor=none;align=left;verticalAlign=middle;spacingLeft=4;spacingRight=4;overflow=hidden;points=[[0,0.5],[1,0.5]];portConstraint=eastwest;rotatable=0;whiteSpace=wrap;html=1;" vertex="1" parent="rRaXRo4WKHm0A6ICayn7-11">
          <mxGeometry y="90" width="140" height="30" as="geometry" />
        </mxCell>
        <mxCell id="rRaXRo4WKHm0A6ICayn7-15" value="&lt;b&gt;Recipe&lt;/b&gt;" style="rhombus;whiteSpace=wrap;html=1;" vertex="1" parent="1">
          <mxGeometry x="534" y="115" width="80" height="80" as="geometry" />
        </mxCell>
        <mxCell id="rRaXRo4WKHm0A6ICayn7-16" value="&lt;b&gt;Ingredient&lt;/b&gt;" style="swimlane;fontStyle=0;childLayout=stackLayout;horizontal=1;startSize=30;horizontalStack=0;resizeParent=1;resizeParentMax=0;resizeLast=0;collapsible=1;marginBottom=0;whiteSpace=wrap;html=1;" vertex="1" parent="1">
          <mxGeometry x="655" y="93" width="140" height="120" as="geometry" />
        </mxCell>
        <mxCell id="rRaXRo4WKHm0A6ICayn7-17" value="&lt;u&gt;Ingredient_ID&lt;/u&gt;" style="text;strokeColor=none;fillColor=none;align=left;verticalAlign=middle;spacingLeft=4;spacingRight=4;overflow=hidden;points=[[0,0.5],[1,0.5]];portConstraint=eastwest;rotatable=0;whiteSpace=wrap;html=1;" vertex="1" parent="rRaXRo4WKHm0A6ICayn7-16">
          <mxGeometry y="30" width="140" height="30" as="geometry" />
        </mxCell>
        <mxCell id="rRaXRo4WKHm0A6ICayn7-18" value="Ingredient_Name" style="text;strokeColor=none;fillColor=none;align=left;verticalAlign=middle;spacingLeft=4;spacingRight=4;overflow=hidden;points=[[0,0.5],[1,0.5]];portConstraint=eastwest;rotatable=0;whiteSpace=wrap;html=1;" vertex="1" parent="rRaXRo4WKHm0A6ICayn7-16">
          <mxGeometry y="60" width="140" height="30" as="geometry" />
        </mxCell>
        <mxCell id="rRaXRo4WKHm0A6ICayn7-19" value="Cost" style="text;strokeColor=none;fillColor=none;align=left;verticalAlign=middle;spacingLeft=4;spacingRight=4;overflow=hidden;points=[[0,0.5],[1,0.5]];portConstraint=eastwest;rotatable=0;whiteSpace=wrap;html=1;" vertex="1" parent="rRaXRo4WKHm0A6ICayn7-16">
          <mxGeometry y="90" width="140" height="30" as="geometry" />
        </mxCell>
        <mxCell id="rRaXRo4WKHm0A6ICayn7-20" value="" style="endArrow=none;html=1;rounded=0;exitX=0.5;exitY=0;exitDx=0;exitDy=0;" edge="1" parent="1" source="rRaXRo4WKHm0A6ICayn7-9" target="rRaXRo4WKHm0A6ICayn7-5">
          <mxGeometry width="50" height="50" relative="1" as="geometry">
            <mxPoint x="715" y="300" as="sourcePoint" />
            <mxPoint x="285" y="260" as="targetPoint" />
          </mxGeometry>
        </mxCell>
        <mxCell id="rRaXRo4WKHm0A6ICayn7-21" value="" style="endArrow=none;html=1;rounded=0;shape=link;exitX=0;exitY=0.5;exitDx=0;exitDy=0;entryX=1;entryY=0.5;entryDx=0;entryDy=0;" edge="1" parent="1" source="rRaXRo4WKHm0A6ICayn7-15" target="rRaXRo4WKHm0A6ICayn7-3">
          <mxGeometry width="50" height="50" relative="1" as="geometry">
            <mxPoint x="535" y="140" as="sourcePoint" />
            <mxPoint x="535" y="250" as="targetPoint" />
          </mxGeometry>
        </mxCell>
        <mxCell id="rRaXRo4WKHm0A6ICayn7-22" value="" style="endArrow=none;html=1;rounded=0;exitX=1;exitY=0.5;exitDx=0;exitDy=0;entryX=0;entryY=0.067;entryDx=0;entryDy=0;entryPerimeter=0;" edge="1" parent="1" source="rRaXRo4WKHm0A6ICayn7-15" target="rRaXRo4WKHm0A6ICayn7-18">
          <mxGeometry width="50" height="50" relative="1" as="geometry">
            <mxPoint x="714" y="305" as="sourcePoint" />
            <mxPoint x="764" y="255" as="targetPoint" />
          </mxGeometry>
        </mxCell>
        <mxCell id="rRaXRo4WKHm0A6ICayn7-23" value="" style="endArrow=none;html=1;rounded=0;entryX=0;entryY=0.5;entryDx=0;entryDy=0;shape=link;exitX=1;exitY=0.5;exitDx=0;exitDy=0;" edge="1" parent="1" source="rRaXRo4WKHm0A6ICayn7-6" target="rRaXRo4WKHm0A6ICayn7-10">
          <mxGeometry width="50" height="50" relative="1" as="geometry">
            <mxPoint x="553" y="489" as="sourcePoint" />
            <mxPoint x="763" y="199" as="targetPoint" />
          </mxGeometry>
        </mxCell>
        <mxCell id="rRaXRo4WKHm0A6ICayn7-24" value="" style="endArrow=classic;html=1;rounded=0;exitX=1;exitY=0.5;exitDx=0;exitDy=0;entryX=0;entryY=1.1;entryDx=0;entryDy=0;entryPerimeter=0;" edge="1" parent="1" source="rRaXRo4WKHm0A6ICayn7-10" target="rRaXRo4WKHm0A6ICayn7-12">
          <mxGeometry width="50" height="50" relative="1" as="geometry">
            <mxPoint x="713" y="249" as="sourcePoint" />
            <mxPoint x="763" y="199" as="targetPoint" />
          </mxGeometry>
        </mxCell>
        <mxCell id="rRaXRo4WKHm0A6ICayn7-25" value="" style="endArrow=none;html=1;rounded=0;exitX=0.5;exitY=1;exitDx=0;exitDy=0;entryX=0.5;entryY=0;entryDx=0;entryDy=0;" edge="1" parent="1" source="rRaXRo4WKHm0A6ICayn7-9" target="rRaXRo4WKHm0A6ICayn7-6">
          <mxGeometry width="50" height="50" relative="1" as="geometry">
            <mxPoint x="713" y="290" as="sourcePoint" />
            <mxPoint x="763" y="240" as="targetPoint" />
          </mxGeometry>
        </mxCell>
        <mxCell id="rRaXRo4WKHm0A6ICayn7-29" value="&lt;b&gt;Order_Drink&lt;/b&gt;" style="rhombus;whiteSpace=wrap;html=1;" vertex="1" parent="1">
          <mxGeometry x="213" y="374" width="90" height="80" as="geometry" />
        </mxCell>
        <mxCell id="rRaXRo4WKHm0A6ICayn7-30" value="" style="endArrow=none;html=1;rounded=0;exitX=1;exitY=0.5;exitDx=0;exitDy=0;entryX=0;entryY=0.5;entryDx=0;entryDy=0;" edge="1" parent="1" source="rRaXRo4WKHm0A6ICayn7-29" target="rRaXRo4WKHm0A6ICayn7-7">
          <mxGeometry width="50" height="50" relative="1" as="geometry">
            <mxPoint x="283" y="370" as="sourcePoint" />
            <mxPoint x="333" y="320" as="targetPoint" />
          </mxGeometry>
        </mxCell>
        <mxCell id="rRaXRo4WKHm0A6ICayn7-31" value="" style="endArrow=none;html=1;rounded=0;exitX=0;exitY=0.5;exitDx=0;exitDy=0;entryX=1;entryY=0.5;entryDx=0;entryDy=0;" edge="1" parent="1" source="rRaXRo4WKHm0A6ICayn7-29" target="-h_iNWIxE1w7O0_tPZGP-3">
          <mxGeometry width="50" height="50" relative="1" as="geometry">
            <mxPoint x="283" y="370" as="sourcePoint" />
            <mxPoint x="240" y="500" as="targetPoint" />
          </mxGeometry>
        </mxCell>
        <mxCell id="-h_iNWIxE1w7O0_tPZGP-1" value="&lt;b&gt;Drink&lt;/b&gt;" style="swimlane;fontStyle=0;childLayout=stackLayout;horizontal=1;startSize=30;horizontalStack=0;resizeParent=1;resizeParentMax=0;resizeLast=0;collapsible=1;marginBottom=0;whiteSpace=wrap;html=1;" vertex="1" parent="1">
          <mxGeometry x="30" y="339" width="140" height="150" as="geometry" />
        </mxCell>
        <mxCell id="-h_iNWIxE1w7O0_tPZGP-2" value="&lt;u&gt;Drink_ID&lt;/u&gt;" style="text;strokeColor=none;fillColor=none;align=left;verticalAlign=middle;spacingLeft=4;spacingRight=4;overflow=hidden;points=[[0,0.5],[1,0.5]];portConstraint=eastwest;rotatable=0;whiteSpace=wrap;html=1;" vertex="1" parent="-h_iNWIxE1w7O0_tPZGP-1">
          <mxGeometry y="30" width="140" height="30" as="geometry" />
        </mxCell>
        <mxCell id="-h_iNWIxE1w7O0_tPZGP-3" value="Drink_Name" style="text;strokeColor=none;fillColor=none;align=left;verticalAlign=middle;spacingLeft=4;spacingRight=4;overflow=hidden;points=[[0,0.5],[1,0.5]];portConstraint=eastwest;rotatable=0;whiteSpace=wrap;html=1;" vertex="1" parent="-h_iNWIxE1w7O0_tPZGP-1">
          <mxGeometry y="60" width="140" height="30" as="geometry" />
        </mxCell>
        <mxCell id="-h_iNWIxE1w7O0_tPZGP-4" value="Price" style="text;strokeColor=none;fillColor=none;align=left;verticalAlign=middle;spacingLeft=4;spacingRight=4;overflow=hidden;points=[[0,0.5],[1,0.5]];portConstraint=eastwest;rotatable=0;whiteSpace=wrap;html=1;" vertex="1" parent="-h_iNWIxE1w7O0_tPZGP-1">
          <mxGeometry y="90" width="140" height="30" as="geometry" />
        </mxCell>
        <mxCell id="-h_iNWIxE1w7O0_tPZGP-5" value="Type" style="text;strokeColor=none;fillColor=none;align=left;verticalAlign=middle;spacingLeft=4;spacingRight=4;overflow=hidden;points=[[0,0.5],[1,0.5]];portConstraint=eastwest;rotatable=0;whiteSpace=wrap;html=1;" vertex="1" parent="-h_iNWIxE1w7O0_tPZGP-1">
          <mxGeometry y="120" width="140" height="30" as="geometry" />
        </mxCell>
        <mxCell id="-h_iNWIxE1w7O0_tPZGP-6" value="&lt;div&gt;Many2Many:&lt;/div&gt;&lt;div&gt;A table of customers can order many dishes. But it is also possible to order zero dishes. Hence we do not draw the double line between the relation and customers.&lt;br&gt;&lt;/div&gt;" style="text;html=1;strokeColor=none;fillColor=none;align=center;verticalAlign=middle;whiteSpace=wrap;rounded=0;" vertex="1" parent="1">
          <mxGeometry x="110" y="183" width="217" height="30" as="geometry" />
        </mxCell>
        <mxCell id="-h_iNWIxE1w7O0_tPZGP-7" value="&lt;div&gt;Many2Many:&lt;/div&gt;&lt;div&gt;A table of customers can order many drinks. But it is also possible to order zero drinks. Hence we do not draw the double line between the relation and customers.&lt;br&gt;&lt;/div&gt;" style="text;html=1;strokeColor=none;fillColor=none;align=center;verticalAlign=middle;whiteSpace=wrap;rounded=0;" vertex="1" parent="1">
          <mxGeometry x="-30" y="530" width="217" height="30" as="geometry" />
        </mxCell>
        <mxCell id="-h_iNWIxE1w7O0_tPZGP-8" value="&lt;div&gt;Many2Many:&lt;/div&gt;&lt;div&gt;All dishes are made with a combination of some ingredients. It is possible for an ingredient to not be included in a dish.&lt;br&gt;&lt;/div&gt;" style="text;html=1;strokeColor=none;fillColor=none;align=center;verticalAlign=middle;whiteSpace=wrap;rounded=0;" vertex="1" parent="1">
          <mxGeometry x="465.5" y="30" width="217" height="30" as="geometry" />
        </mxCell>
        <mxCell id="-h_iNWIxE1w7O0_tPZGP-9" value="&lt;div&gt;Many2One:&lt;/div&gt;&lt;div&gt;A table of customers must be served by one and only one waiter. But it is possible for a waiter to serve multiple tables with customers.&lt;br&gt;&lt;/div&gt;" style="text;html=1;strokeColor=none;fillColor=none;align=center;verticalAlign=middle;whiteSpace=wrap;rounded=0;" vertex="1" parent="1">
          <mxGeometry x="460" y="500" width="217" height="30" as="geometry" />
        </mxCell>
        <mxCell id="SfcwA7H_dFx8l64iPVqo-1" value="Quantity_Dish" style="rounded=0;whiteSpace=wrap;html=1;gradientColor=none;fillColor=none;" vertex="1" parent="1">
          <mxGeometry x="494" y="270" width="120" height="60" as="geometry" />
        </mxCell>
        <mxCell id="SfcwA7H_dFx8l64iPVqo-3" value="Quantity_Drink" style="rounded=0;whiteSpace=wrap;html=1;gradientColor=none;fillColor=none;" vertex="1" parent="1">
          <mxGeometry x="198" y="485" width="120" height="60" as="geometry" />
        </mxCell>
        <mxCell id="SfcwA7H_dFx8l64iPVqo-4" value="" style="endArrow=none;dashed=1;html=1;rounded=0;exitX=0.5;exitY=0;exitDx=0;exitDy=0;entryX=0.5;entryY=1;entryDx=0;entryDy=0;" edge="1" parent="1" source="SfcwA7H_dFx8l64iPVqo-3" target="rRaXRo4WKHm0A6ICayn7-29">
          <mxGeometry width="50" height="50" relative="1" as="geometry">
            <mxPoint x="390" y="480" as="sourcePoint" />
            <mxPoint x="440" y="430" as="targetPoint" />
          </mxGeometry>
        </mxCell>
        <mxCell id="SfcwA7H_dFx8l64iPVqo-5" value="" style="endArrow=none;dashed=1;html=1;rounded=0;entryX=0;entryY=0.5;entryDx=0;entryDy=0;exitX=1;exitY=0.5;exitDx=0;exitDy=0;" edge="1" parent="1" source="rRaXRo4WKHm0A6ICayn7-9" target="SfcwA7H_dFx8l64iPVqo-1">
          <mxGeometry width="50" height="50" relative="1" as="geometry">
            <mxPoint x="390" y="310" as="sourcePoint" />
            <mxPoint x="440" y="260" as="targetPoint" />
          </mxGeometry>
        </mxCell>
      </root>
    </mxGraphModel>
  </diagram>
  <diagram id="KMfkybBJ_aovo0JCIxR6" name="Relation Schemas">
    <mxGraphModel dx="1615" dy="815" grid="1" gridSize="10" guides="1" tooltips="1" connect="1" arrows="1" fold="1" page="1" pageScale="1" pageWidth="1169" pageHeight="827" math="0" shadow="0">
      <root>
        <mxCell id="0" />
        <mxCell id="1" parent="0" />
        <mxCell id="prURIXrx6CMWsZleL1Up-1" value="&lt;b&gt;Dish&lt;/b&gt;" style="swimlane;fontStyle=0;childLayout=stackLayout;horizontal=1;startSize=30;horizontalStack=0;resizeParent=1;resizeParentMax=0;resizeLast=0;collapsible=1;marginBottom=0;whiteSpace=wrap;html=1;" vertex="1" parent="1">
          <mxGeometry x="630" y="190" width="140" height="150" as="geometry" />
        </mxCell>
        <mxCell id="prURIXrx6CMWsZleL1Up-2" value="&lt;u&gt;Dish_ID&lt;/u&gt;" style="text;strokeColor=none;fillColor=none;align=left;verticalAlign=middle;spacingLeft=4;spacingRight=4;overflow=hidden;points=[[0,0.5],[1,0.5]];portConstraint=eastwest;rotatable=0;whiteSpace=wrap;html=1;" vertex="1" parent="prURIXrx6CMWsZleL1Up-1">
          <mxGeometry y="30" width="140" height="30" as="geometry" />
        </mxCell>
        <mxCell id="prURIXrx6CMWsZleL1Up-3" value="Dish_Name" style="text;strokeColor=none;fillColor=none;align=left;verticalAlign=middle;spacingLeft=4;spacingRight=4;overflow=hidden;points=[[0,0.5],[1,0.5]];portConstraint=eastwest;rotatable=0;whiteSpace=wrap;html=1;" vertex="1" parent="prURIXrx6CMWsZleL1Up-1">
          <mxGeometry y="60" width="140" height="30" as="geometry" />
        </mxCell>
        <mxCell id="prURIXrx6CMWsZleL1Up-4" value="Price" style="text;strokeColor=none;fillColor=none;align=left;verticalAlign=middle;spacingLeft=4;spacingRight=4;overflow=hidden;points=[[0,0.5],[1,0.5]];portConstraint=eastwest;rotatable=0;whiteSpace=wrap;html=1;" vertex="1" parent="prURIXrx6CMWsZleL1Up-1">
          <mxGeometry y="90" width="140" height="30" as="geometry" />
        </mxCell>
        <mxCell id="prURIXrx6CMWsZleL1Up-5" value="Type" style="text;strokeColor=none;fillColor=none;align=left;verticalAlign=middle;spacingLeft=4;spacingRight=4;overflow=hidden;points=[[0,0.5],[1,0.5]];portConstraint=eastwest;rotatable=0;whiteSpace=wrap;html=1;" vertex="1" parent="prURIXrx6CMWsZleL1Up-1">
          <mxGeometry y="120" width="140" height="30" as="geometry" />
        </mxCell>
        <mxCell id="prURIXrx6CMWsZleL1Up-6" value="&lt;b&gt;Customers&lt;/b&gt;" style="swimlane;fontStyle=0;childLayout=stackLayout;horizontal=1;startSize=30;horizontalStack=0;resizeParent=1;resizeParentMax=0;resizeLast=0;collapsible=1;marginBottom=0;whiteSpace=wrap;html=1;" vertex="1" parent="1">
          <mxGeometry x="633" y="560" width="140" height="120" as="geometry" />
        </mxCell>
        <mxCell id="prURIXrx6CMWsZleL1Up-7" value="&lt;u&gt;Table_ID&lt;/u&gt;" style="text;strokeColor=none;fillColor=none;align=left;verticalAlign=middle;spacingLeft=4;spacingRight=4;overflow=hidden;points=[[0,0.5],[1,0.5]];portConstraint=eastwest;rotatable=0;whiteSpace=wrap;html=1;" vertex="1" parent="prURIXrx6CMWsZleL1Up-6">
          <mxGeometry y="30" width="140" height="30" as="geometry" />
        </mxCell>
        <mxCell id="prURIXrx6CMWsZleL1Up-8" value="&lt;u&gt;Start_Time&lt;/u&gt;" style="text;strokeColor=none;fillColor=none;align=left;verticalAlign=middle;spacingLeft=4;spacingRight=4;overflow=hidden;points=[[0,0.5],[1,0.5]];portConstraint=eastwest;rotatable=0;whiteSpace=wrap;html=1;" vertex="1" parent="prURIXrx6CMWsZleL1Up-6">
          <mxGeometry y="60" width="140" height="30" as="geometry" />
        </mxCell>
        <mxCell id="dw270CaB3AW3N10Zpqih-1" value="Waiter_ID [NOT NULL]" style="text;strokeColor=none;fillColor=none;align=left;verticalAlign=middle;spacingLeft=4;spacingRight=4;overflow=hidden;points=[[0,0.5],[1,0.5]];portConstraint=eastwest;rotatable=0;whiteSpace=wrap;html=1;" vertex="1" parent="prURIXrx6CMWsZleL1Up-6">
          <mxGeometry y="90" width="140" height="30" as="geometry" />
        </mxCell>
        <mxCell id="prURIXrx6CMWsZleL1Up-11" value="&lt;b&gt;Waiter&lt;/b&gt;" style="swimlane;fontStyle=0;childLayout=stackLayout;horizontal=1;startSize=30;horizontalStack=0;resizeParent=1;resizeParentMax=0;resizeLast=0;collapsible=1;marginBottom=0;whiteSpace=wrap;html=1;" vertex="1" parent="1">
          <mxGeometry x="860" y="560" width="140" height="120" as="geometry" />
        </mxCell>
        <mxCell id="prURIXrx6CMWsZleL1Up-12" value="&lt;u&gt;Waiter_ID&lt;/u&gt;" style="text;strokeColor=none;fillColor=none;align=left;verticalAlign=middle;spacingLeft=4;spacingRight=4;overflow=hidden;points=[[0,0.5],[1,0.5]];portConstraint=eastwest;rotatable=0;whiteSpace=wrap;html=1;" vertex="1" parent="prURIXrx6CMWsZleL1Up-11">
          <mxGeometry y="30" width="140" height="30" as="geometry" />
        </mxCell>
        <mxCell id="prURIXrx6CMWsZleL1Up-13" value="Waiter_Name" style="text;strokeColor=none;fillColor=none;align=left;verticalAlign=middle;spacingLeft=4;spacingRight=4;overflow=hidden;points=[[0,0.5],[1,0.5]];portConstraint=eastwest;rotatable=0;whiteSpace=wrap;html=1;" vertex="1" parent="prURIXrx6CMWsZleL1Up-11">
          <mxGeometry y="60" width="140" height="30" as="geometry" />
        </mxCell>
        <mxCell id="prURIXrx6CMWsZleL1Up-14" value="Salary" style="text;strokeColor=none;fillColor=none;align=left;verticalAlign=middle;spacingLeft=4;spacingRight=4;overflow=hidden;points=[[0,0.5],[1,0.5]];portConstraint=eastwest;rotatable=0;whiteSpace=wrap;html=1;" vertex="1" parent="prURIXrx6CMWsZleL1Up-11">
          <mxGeometry y="90" width="140" height="30" as="geometry" />
        </mxCell>
        <mxCell id="prURIXrx6CMWsZleL1Up-16" value="&lt;b&gt;Ingredient&lt;/b&gt;" style="swimlane;fontStyle=0;childLayout=stackLayout;horizontal=1;startSize=30;horizontalStack=0;resizeParent=1;resizeParentMax=0;resizeLast=0;collapsible=1;marginBottom=0;whiteSpace=wrap;html=1;" vertex="1" parent="1">
          <mxGeometry x="1000" y="190" width="140" height="120" as="geometry" />
        </mxCell>
        <mxCell id="prURIXrx6CMWsZleL1Up-17" value="&lt;u&gt;Ingredient_ID&lt;/u&gt;" style="text;strokeColor=none;fillColor=none;align=left;verticalAlign=middle;spacingLeft=4;spacingRight=4;overflow=hidden;points=[[0,0.5],[1,0.5]];portConstraint=eastwest;rotatable=0;whiteSpace=wrap;html=1;" vertex="1" parent="prURIXrx6CMWsZleL1Up-16">
          <mxGeometry y="30" width="140" height="30" as="geometry" />
        </mxCell>
        <mxCell id="prURIXrx6CMWsZleL1Up-18" value="Ingredient_Name" style="text;strokeColor=none;fillColor=none;align=left;verticalAlign=middle;spacingLeft=4;spacingRight=4;overflow=hidden;points=[[0,0.5],[1,0.5]];portConstraint=eastwest;rotatable=0;whiteSpace=wrap;html=1;" vertex="1" parent="prURIXrx6CMWsZleL1Up-16">
          <mxGeometry y="60" width="140" height="30" as="geometry" />
        </mxCell>
        <mxCell id="prURIXrx6CMWsZleL1Up-19" value="Cost" style="text;strokeColor=none;fillColor=none;align=left;verticalAlign=middle;spacingLeft=4;spacingRight=4;overflow=hidden;points=[[0,0.5],[1,0.5]];portConstraint=eastwest;rotatable=0;whiteSpace=wrap;html=1;" vertex="1" parent="prURIXrx6CMWsZleL1Up-16">
          <mxGeometry y="90" width="140" height="30" as="geometry" />
        </mxCell>
        <mxCell id="prURIXrx6CMWsZleL1Up-29" value="&lt;b&gt;Drink&lt;/b&gt;" style="swimlane;fontStyle=0;childLayout=stackLayout;horizontal=1;startSize=30;horizontalStack=0;resizeParent=1;resizeParentMax=0;resizeLast=0;collapsible=1;marginBottom=0;whiteSpace=wrap;html=1;" vertex="1" parent="1">
          <mxGeometry x="220" y="530" width="140" height="150" as="geometry" />
        </mxCell>
        <mxCell id="prURIXrx6CMWsZleL1Up-30" value="&lt;u&gt;Drink_ID&lt;/u&gt;" style="text;strokeColor=none;fillColor=none;align=left;verticalAlign=middle;spacingLeft=4;spacingRight=4;overflow=hidden;points=[[0,0.5],[1,0.5]];portConstraint=eastwest;rotatable=0;whiteSpace=wrap;html=1;" vertex="1" parent="prURIXrx6CMWsZleL1Up-29">
          <mxGeometry y="30" width="140" height="30" as="geometry" />
        </mxCell>
        <mxCell id="prURIXrx6CMWsZleL1Up-31" value="Drink_Name" style="text;strokeColor=none;fillColor=none;align=left;verticalAlign=middle;spacingLeft=4;spacingRight=4;overflow=hidden;points=[[0,0.5],[1,0.5]];portConstraint=eastwest;rotatable=0;whiteSpace=wrap;html=1;" vertex="1" parent="prURIXrx6CMWsZleL1Up-29">
          <mxGeometry y="60" width="140" height="30" as="geometry" />
        </mxCell>
        <mxCell id="prURIXrx6CMWsZleL1Up-32" value="Price" style="text;strokeColor=none;fillColor=none;align=left;verticalAlign=middle;spacingLeft=4;spacingRight=4;overflow=hidden;points=[[0,0.5],[1,0.5]];portConstraint=eastwest;rotatable=0;whiteSpace=wrap;html=1;" vertex="1" parent="prURIXrx6CMWsZleL1Up-29">
          <mxGeometry y="90" width="140" height="30" as="geometry" />
        </mxCell>
        <mxCell id="prURIXrx6CMWsZleL1Up-33" value="Type" style="text;strokeColor=none;fillColor=none;align=left;verticalAlign=middle;spacingLeft=4;spacingRight=4;overflow=hidden;points=[[0,0.5],[1,0.5]];portConstraint=eastwest;rotatable=0;whiteSpace=wrap;html=1;" vertex="1" parent="prURIXrx6CMWsZleL1Up-29">
          <mxGeometry y="120" width="140" height="30" as="geometry" />
        </mxCell>
        <mxCell id="He-D8Gyx-kqD4voVPy36-1" value="&lt;b&gt;Order_Drink&lt;/b&gt;" style="swimlane;fontStyle=0;childLayout=stackLayout;horizontal=1;startSize=30;horizontalStack=0;resizeParent=1;resizeParentMax=0;resizeLast=0;collapsible=1;marginBottom=0;whiteSpace=wrap;html=1;" vertex="1" parent="1">
          <mxGeometry x="430" y="530" width="140" height="150" as="geometry" />
        </mxCell>
        <mxCell id="He-D8Gyx-kqD4voVPy36-2" value="&lt;u&gt;Drink_ID&lt;/u&gt;" style="text;strokeColor=none;fillColor=none;align=left;verticalAlign=middle;spacingLeft=4;spacingRight=4;overflow=hidden;points=[[0,0.5],[1,0.5]];portConstraint=eastwest;rotatable=0;whiteSpace=wrap;html=1;" vertex="1" parent="He-D8Gyx-kqD4voVPy36-1">
          <mxGeometry y="30" width="140" height="30" as="geometry" />
        </mxCell>
        <mxCell id="He-D8Gyx-kqD4voVPy36-3" value="&lt;u&gt;Table_ID&lt;/u&gt;" style="text;strokeColor=none;fillColor=none;align=left;verticalAlign=middle;spacingLeft=4;spacingRight=4;overflow=hidden;points=[[0,0.5],[1,0.5]];portConstraint=eastwest;rotatable=0;whiteSpace=wrap;html=1;" vertex="1" parent="He-D8Gyx-kqD4voVPy36-1">
          <mxGeometry y="60" width="140" height="30" as="geometry" />
        </mxCell>
        <mxCell id="He-D8Gyx-kqD4voVPy36-4" value="&lt;div&gt;&lt;u&gt;Start_Time&lt;/u&gt;&lt;/div&gt;" style="text;strokeColor=none;fillColor=none;align=left;verticalAlign=middle;spacingLeft=4;spacingRight=4;overflow=hidden;points=[[0,0.5],[1,0.5]];portConstraint=eastwest;rotatable=0;whiteSpace=wrap;html=1;" vertex="1" parent="He-D8Gyx-kqD4voVPy36-1">
          <mxGeometry y="90" width="140" height="30" as="geometry" />
        </mxCell>
        <mxCell id="He-D8Gyx-kqD4voVPy36-5" value="Quantity_Drink" style="text;strokeColor=none;fillColor=none;align=left;verticalAlign=middle;spacingLeft=4;spacingRight=4;overflow=hidden;points=[[0,0.5],[1,0.5]];portConstraint=eastwest;rotatable=0;whiteSpace=wrap;html=1;" vertex="1" parent="He-D8Gyx-kqD4voVPy36-1">
          <mxGeometry y="120" width="140" height="30" as="geometry" />
        </mxCell>
        <mxCell id="He-D8Gyx-kqD4voVPy36-10" value="&lt;b&gt;Order_Dish&lt;/b&gt;" style="swimlane;fontStyle=0;childLayout=stackLayout;horizontal=1;startSize=30;horizontalStack=0;resizeParent=1;resizeParentMax=0;resizeLast=0;collapsible=1;marginBottom=0;whiteSpace=wrap;html=1;" vertex="1" parent="1">
          <mxGeometry x="630" y="380" width="140" height="150" as="geometry" />
        </mxCell>
        <mxCell id="He-D8Gyx-kqD4voVPy36-11" value="&lt;u&gt;Dish_ID&lt;/u&gt;" style="text;strokeColor=none;fillColor=none;align=left;verticalAlign=middle;spacingLeft=4;spacingRight=4;overflow=hidden;points=[[0,0.5],[1,0.5]];portConstraint=eastwest;rotatable=0;whiteSpace=wrap;html=1;" vertex="1" parent="He-D8Gyx-kqD4voVPy36-10">
          <mxGeometry y="30" width="140" height="30" as="geometry" />
        </mxCell>
        <mxCell id="He-D8Gyx-kqD4voVPy36-12" value="&lt;u&gt;Table_ID&lt;/u&gt;" style="text;strokeColor=none;fillColor=none;align=left;verticalAlign=middle;spacingLeft=4;spacingRight=4;overflow=hidden;points=[[0,0.5],[1,0.5]];portConstraint=eastwest;rotatable=0;whiteSpace=wrap;html=1;" vertex="1" parent="He-D8Gyx-kqD4voVPy36-10">
          <mxGeometry y="60" width="140" height="30" as="geometry" />
        </mxCell>
        <mxCell id="He-D8Gyx-kqD4voVPy36-13" value="&lt;div&gt;&lt;u&gt;Start_Time&lt;/u&gt;&lt;/div&gt;" style="text;strokeColor=none;fillColor=none;align=left;verticalAlign=middle;spacingLeft=4;spacingRight=4;overflow=hidden;points=[[0,0.5],[1,0.5]];portConstraint=eastwest;rotatable=0;whiteSpace=wrap;html=1;" vertex="1" parent="He-D8Gyx-kqD4voVPy36-10">
          <mxGeometry y="90" width="140" height="30" as="geometry" />
        </mxCell>
        <mxCell id="He-D8Gyx-kqD4voVPy36-14" value="Quantity_Dish" style="text;strokeColor=none;fillColor=none;align=left;verticalAlign=middle;spacingLeft=4;spacingRight=4;overflow=hidden;points=[[0,0.5],[1,0.5]];portConstraint=eastwest;rotatable=0;whiteSpace=wrap;html=1;" vertex="1" parent="He-D8Gyx-kqD4voVPy36-10">
          <mxGeometry y="120" width="140" height="30" as="geometry" />
        </mxCell>
        <mxCell id="dw270CaB3AW3N10Zpqih-2" value="" style="endArrow=classic;html=1;rounded=0;exitX=0;exitY=0.5;exitDx=0;exitDy=0;entryX=1;entryY=0.5;entryDx=0;entryDy=0;" edge="1" parent="1" source="He-D8Gyx-kqD4voVPy36-2" target="prURIXrx6CMWsZleL1Up-30">
          <mxGeometry width="50" height="50" relative="1" as="geometry">
            <mxPoint x="730" y="540" as="sourcePoint" />
            <mxPoint x="780" y="490" as="targetPoint" />
          </mxGeometry>
        </mxCell>
        <mxCell id="dw270CaB3AW3N10Zpqih-3" value="" style="endArrow=classic;html=1;rounded=0;exitX=1;exitY=0.5;exitDx=0;exitDy=0;entryX=0;entryY=0.5;entryDx=0;entryDy=0;" edge="1" parent="1" source="He-D8Gyx-kqD4voVPy36-3" target="prURIXrx6CMWsZleL1Up-7">
          <mxGeometry width="50" height="50" relative="1" as="geometry">
            <mxPoint x="730" y="540" as="sourcePoint" />
            <mxPoint x="780" y="490" as="targetPoint" />
          </mxGeometry>
        </mxCell>
        <mxCell id="dw270CaB3AW3N10Zpqih-4" value="" style="endArrow=classic;html=1;rounded=0;exitX=1;exitY=0.5;exitDx=0;exitDy=0;entryX=0;entryY=0.5;entryDx=0;entryDy=0;" edge="1" parent="1" source="He-D8Gyx-kqD4voVPy36-4" target="prURIXrx6CMWsZleL1Up-8">
          <mxGeometry width="50" height="50" relative="1" as="geometry">
            <mxPoint x="730" y="540" as="sourcePoint" />
            <mxPoint x="780" y="490" as="targetPoint" />
          </mxGeometry>
        </mxCell>
        <mxCell id="dw270CaB3AW3N10Zpqih-5" value="" style="endArrow=classic;html=1;rounded=0;exitX=1;exitY=0.5;exitDx=0;exitDy=0;entryX=0;entryY=0.5;entryDx=0;entryDy=0;" edge="1" parent="1" source="dw270CaB3AW3N10Zpqih-1" target="prURIXrx6CMWsZleL1Up-12">
          <mxGeometry width="50" height="50" relative="1" as="geometry">
            <mxPoint x="730" y="540" as="sourcePoint" />
            <mxPoint x="780" y="490" as="targetPoint" />
            <Array as="points">
              <mxPoint x="820" y="665" />
              <mxPoint x="820" y="605" />
            </Array>
          </mxGeometry>
        </mxCell>
        <mxCell id="dw270CaB3AW3N10Zpqih-6" value="" style="endArrow=classic;html=1;rounded=0;exitX=0;exitY=0.5;exitDx=0;exitDy=0;entryX=-0.007;entryY=0.239;entryDx=0;entryDy=0;entryPerimeter=0;" edge="1" parent="1" source="He-D8Gyx-kqD4voVPy36-10" target="prURIXrx6CMWsZleL1Up-7">
          <mxGeometry width="50" height="50" relative="1" as="geometry">
            <mxPoint x="730" y="490" as="sourcePoint" />
            <mxPoint x="610" y="600" as="targetPoint" />
            <Array as="points">
              <mxPoint x="610" y="455" />
              <mxPoint x="610" y="597" />
            </Array>
          </mxGeometry>
        </mxCell>
        <mxCell id="dw270CaB3AW3N10Zpqih-7" value="" style="endArrow=classic;html=1;rounded=0;exitX=0;exitY=0.5;exitDx=0;exitDy=0;entryX=-0.007;entryY=0.863;entryDx=0;entryDy=0;entryPerimeter=0;" edge="1" parent="1" source="He-D8Gyx-kqD4voVPy36-13" target="prURIXrx6CMWsZleL1Up-8">
          <mxGeometry width="50" height="50" relative="1" as="geometry">
            <mxPoint x="620" y="490" as="sourcePoint" />
            <mxPoint x="630" y="630.5970149253732" as="targetPoint" />
            <Array as="points">
              <mxPoint x="600" y="485" />
              <mxPoint x="600" y="646" />
            </Array>
          </mxGeometry>
        </mxCell>
        <mxCell id="dw270CaB3AW3N10Zpqih-8" value="" style="endArrow=classic;html=1;rounded=0;exitX=0;exitY=0.5;exitDx=0;exitDy=0;entryX=0;entryY=0.5;entryDx=0;entryDy=0;" edge="1" parent="1" source="He-D8Gyx-kqD4voVPy36-11" target="prURIXrx6CMWsZleL1Up-2">
          <mxGeometry width="50" height="50" relative="1" as="geometry">
            <mxPoint x="690" y="390" as="sourcePoint" />
            <mxPoint x="620" y="240" as="targetPoint" />
            <Array as="points">
              <mxPoint x="610" y="425" />
              <mxPoint x="610" y="235" />
            </Array>
          </mxGeometry>
        </mxCell>
        <mxCell id="1-WSekrLZfj2ZpFs1Gb1-1" value="&lt;b&gt;Recipe&lt;/b&gt;" style="swimlane;fontStyle=0;childLayout=stackLayout;horizontal=1;startSize=30;horizontalStack=0;resizeParent=1;resizeParentMax=0;resizeLast=0;collapsible=1;marginBottom=0;whiteSpace=wrap;html=1;" vertex="1" parent="1">
          <mxGeometry x="817" y="190" width="140" height="90" as="geometry" />
        </mxCell>
        <mxCell id="1-WSekrLZfj2ZpFs1Gb1-2" value="&lt;u&gt;Dish_ID&lt;/u&gt;" style="text;strokeColor=none;fillColor=none;align=left;verticalAlign=middle;spacingLeft=4;spacingRight=4;overflow=hidden;points=[[0,0.5],[1,0.5]];portConstraint=eastwest;rotatable=0;whiteSpace=wrap;html=1;" vertex="1" parent="1-WSekrLZfj2ZpFs1Gb1-1">
          <mxGeometry y="30" width="140" height="30" as="geometry" />
        </mxCell>
        <mxCell id="1-WSekrLZfj2ZpFs1Gb1-3" value="&lt;u&gt;Ingredient_ID&lt;/u&gt;" style="text;strokeColor=none;fillColor=none;align=left;verticalAlign=middle;spacingLeft=4;spacingRight=4;overflow=hidden;points=[[0,0.5],[1,0.5]];portConstraint=eastwest;rotatable=0;whiteSpace=wrap;html=1;" vertex="1" parent="1-WSekrLZfj2ZpFs1Gb1-1">
          <mxGeometry y="60" width="140" height="30" as="geometry" />
        </mxCell>
        <mxCell id="1-WSekrLZfj2ZpFs1Gb1-6" value="" style="endArrow=classic;html=1;rounded=0;entryX=0;entryY=0.5;entryDx=0;entryDy=0;exitX=1;exitY=0.5;exitDx=0;exitDy=0;" edge="1" parent="1" source="1-WSekrLZfj2ZpFs1Gb1-3" target="prURIXrx6CMWsZleL1Up-17">
          <mxGeometry width="50" height="50" relative="1" as="geometry">
            <mxPoint x="980" y="320" as="sourcePoint" />
            <mxPoint x="930" y="210" as="targetPoint" />
            <Array as="points">
              <mxPoint x="980" y="265" />
              <mxPoint x="980" y="235" />
            </Array>
          </mxGeometry>
        </mxCell>
        <mxCell id="1-WSekrLZfj2ZpFs1Gb1-7" value="" style="endArrow=classic;html=1;rounded=0;exitX=0;exitY=0.5;exitDx=0;exitDy=0;entryX=1;entryY=0.5;entryDx=0;entryDy=0;" edge="1" parent="1" source="1-WSekrLZfj2ZpFs1Gb1-2" target="prURIXrx6CMWsZleL1Up-2">
          <mxGeometry width="50" height="50" relative="1" as="geometry">
            <mxPoint x="880" y="260" as="sourcePoint" />
            <mxPoint x="930" y="210" as="targetPoint" />
          </mxGeometry>
        </mxCell>
      </root>
    </mxGraphModel>
  </diagram>
</mxfile>
